G04 Layer_Physical_Order=2*
G04 Layer_Color=16711680*
%FSLAX25Y25*%
%MOIN*%
G70*
G01*
G75*
%ADD10C,0.01500*%
%ADD11C,0.02500*%
%ADD12C,0.07000*%
%ADD13R,0.07000X0.07000*%
%ADD14R,0.07000X0.07000*%
%ADD15C,0.05512*%
D10*
X320000Y157500D02*
X408000Y69500D01*
X477500D01*
X330000Y157500D02*
X398000Y89500D01*
X477500D01*
X330000Y167500D02*
X398000Y99500D01*
X477500D01*
X320000Y167500D02*
Y171500D01*
X315000Y176500D02*
X320000Y171500D01*
X305000Y176500D02*
X315000D01*
X298000Y169500D02*
X305000Y176500D01*
X298000Y155500D02*
Y169500D01*
Y155500D02*
X396500Y57000D01*
X477500Y79500D02*
X480500D01*
X487500Y72500D01*
X396500Y57000D02*
X481000D01*
X487500Y63500D01*
Y72500D01*
X453000Y207500D02*
X480000D01*
X442500Y197000D02*
X453000Y207500D01*
X442500Y191000D02*
Y197000D01*
X459000Y197500D02*
X480000D01*
X452500Y191000D02*
X459000Y197500D01*
X425000Y208500D02*
Y231000D01*
Y208500D02*
X442500Y191000D01*
X393500Y267500D02*
X480000D01*
X367000Y241000D02*
X393500Y267500D01*
X411500Y422500D02*
Y440500D01*
X456500Y371000D02*
Y423000D01*
Y371000D02*
X480000Y347500D01*
X446500Y371000D02*
Y423000D01*
Y371000D02*
X480000Y337500D01*
X436500Y371000D02*
Y423000D01*
Y371000D02*
X480000Y327500D01*
D11*
X432500Y191000D02*
X443500Y180000D01*
X478500D01*
X488000Y170500D01*
X477500Y109500D02*
X480500D01*
X488000Y117000D01*
Y170500D01*
X407500Y176000D02*
X422500Y191000D01*
X407500Y140500D02*
Y176000D01*
Y140500D02*
X428500Y119500D01*
X477500D01*
X415000Y208682D02*
Y231000D01*
Y208682D02*
X432500Y191182D01*
Y191000D02*
Y191182D01*
X405000Y208500D02*
Y231000D01*
Y208500D02*
X422500Y191000D01*
X367000Y224500D02*
Y231000D01*
X334500Y241000D02*
X337000D01*
X347000Y224500D02*
X350500Y221000D01*
X363500D01*
X367000Y224500D01*
Y231000D02*
X374500D01*
X415000D02*
Y233500D01*
X374500Y231000D02*
X385000Y241500D01*
X407000D01*
X415000Y233500D01*
X347000Y224500D02*
Y231000D01*
X315000D02*
Y332500D01*
X300000Y347500D02*
X315000Y332500D01*
Y231000D02*
X325000Y221000D01*
X343500D01*
X347000Y224500D01*
X300000Y347500D02*
X301000D01*
X308000Y354500D02*
X329500D01*
X301000Y347500D02*
X308000Y354500D01*
X300000Y357500D02*
Y367500D01*
X307000Y364500D02*
X329500D01*
X300000Y357500D02*
X307000Y364500D01*
X329500D02*
X332500D01*
X344000Y353000D01*
Y262000D02*
Y353000D01*
X337000Y255000D02*
X344000Y262000D01*
X337000Y241000D02*
Y255000D01*
X291000Y376500D02*
X300000Y367500D01*
X291000Y376500D02*
Y443000D01*
X295000Y447000D01*
X306500D01*
X310500Y443000D01*
Y439500D02*
Y443000D01*
Y439500D02*
X318000Y447000D01*
X353500D01*
X357500Y443000D01*
Y440000D02*
Y443000D01*
Y440000D02*
X358000D01*
X365500Y447500D01*
X420500D01*
X426500Y441500D01*
Y423000D02*
Y441500D01*
X357500Y436500D02*
Y440000D01*
Y436500D02*
X371500Y422500D01*
D12*
X480000Y167500D02*
D03*
X470000D02*
D03*
X460000D02*
D03*
X450000D02*
D03*
X440000D02*
D03*
X430000D02*
D03*
X420000D02*
D03*
X480000Y157500D02*
D03*
X470000D02*
D03*
X460000D02*
D03*
X450000D02*
D03*
X440000D02*
D03*
X430000D02*
D03*
X420000D02*
D03*
X320000D02*
D03*
X310000D02*
D03*
X320000Y167500D02*
D03*
X330000D02*
D03*
Y157500D02*
D03*
X477500Y79500D02*
D03*
Y89500D02*
D03*
Y99500D02*
D03*
Y109500D02*
D03*
Y119500D02*
D03*
X445000Y231000D02*
D03*
X435000D02*
D03*
X425000D02*
D03*
X415000D02*
D03*
X405000D02*
D03*
X300000Y347500D02*
D03*
Y357500D02*
D03*
Y367500D02*
D03*
Y377500D02*
D03*
Y387500D02*
D03*
Y397500D02*
D03*
Y407500D02*
D03*
X432500Y191000D02*
D03*
X442500D02*
D03*
X452500D02*
D03*
X480000Y372500D02*
D03*
Y382500D02*
D03*
Y392500D02*
D03*
Y402500D02*
D03*
Y412500D02*
D03*
Y422500D02*
D03*
Y432500D02*
D03*
Y287500D02*
D03*
Y297500D02*
D03*
Y307500D02*
D03*
Y317500D02*
D03*
Y327500D02*
D03*
Y337500D02*
D03*
Y347500D02*
D03*
Y197500D02*
D03*
Y207500D02*
D03*
Y217500D02*
D03*
Y227500D02*
D03*
Y237500D02*
D03*
Y247500D02*
D03*
Y257500D02*
D03*
X300000Y227500D02*
D03*
Y217500D02*
D03*
Y207500D02*
D03*
Y197500D02*
D03*
Y187500D02*
D03*
Y257500D02*
D03*
Y267500D02*
D03*
Y277500D02*
D03*
Y287500D02*
D03*
Y297500D02*
D03*
Y307500D02*
D03*
Y317500D02*
D03*
X347000Y241000D02*
D03*
X357000D02*
D03*
X367000D02*
D03*
X337000Y231000D02*
D03*
X347000D02*
D03*
X357000D02*
D03*
X367000D02*
D03*
X329500Y364500D02*
D03*
Y354500D02*
D03*
X310500Y439500D02*
D03*
X367500Y440000D02*
D03*
X357500D02*
D03*
X411500Y440500D02*
D03*
X436500Y423000D02*
D03*
X446500D02*
D03*
X456500D02*
D03*
D13*
X310000Y167500D02*
D03*
X455000Y231000D02*
D03*
X422500Y191000D02*
D03*
X337000Y241000D02*
D03*
X300500Y439500D02*
D03*
X347500Y440000D02*
D03*
X401500Y440500D02*
D03*
X426500Y423000D02*
D03*
D14*
X477500Y69500D02*
D03*
X300000Y417500D02*
D03*
X480000Y442500D02*
D03*
Y357500D02*
D03*
Y267500D02*
D03*
X300000Y237500D02*
D03*
Y327500D02*
D03*
X329500Y344500D02*
D03*
D15*
X411500Y422500D02*
D03*
X371500D02*
D03*
M02*
