G04 Layer_Physical_Order=1*
G04 Layer_Color=255*
%FSLAX25Y25*%
%MOIN*%
G70*
G01*
G75*
%ADD10C,0.01500*%
%ADD11C,0.02500*%
%ADD12C,0.07000*%
%ADD13R,0.07000X0.07000*%
%ADD14R,0.07000X0.07000*%
%ADD15C,0.05512*%
D10*
X435000Y208500D02*
Y231000D01*
Y208500D02*
X452500Y191000D01*
X411000Y257500D02*
X480000D01*
X369500Y216000D02*
X411000Y257500D01*
X337000Y227000D02*
Y231000D01*
Y227000D02*
X348000Y216000D01*
X369500D01*
X367500Y432500D02*
Y440000D01*
X357500Y422500D02*
X367500Y432500D01*
X357500Y348500D02*
Y422500D01*
X336500Y327500D02*
X357500Y348500D01*
X300000Y327500D02*
X336500D01*
X300000Y267500D02*
X329000D01*
X364500Y303000D01*
Y375500D01*
X411500Y422500D01*
D11*
X336000Y241000D02*
X337000D01*
X325000Y230000D02*
X336000Y241000D01*
X325000Y207000D02*
Y230000D01*
Y207000D02*
X341000Y191000D01*
X422500D01*
X347500Y440000D02*
X355000Y447500D01*
X394000D01*
X401000Y440500D01*
X401500D01*
X300500Y433000D02*
Y439500D01*
Y433000D02*
X315000Y418500D01*
Y350000D02*
Y418500D01*
Y350000D02*
X320500Y344500D01*
X329500D01*
X347500Y364500D02*
Y440000D01*
X337500Y354500D02*
X347500Y364500D01*
X329500Y354500D02*
X337500D01*
D12*
X480000Y167500D02*
D03*
X470000D02*
D03*
X460000D02*
D03*
X450000D02*
D03*
X440000D02*
D03*
X430000D02*
D03*
X420000D02*
D03*
X480000Y157500D02*
D03*
X470000D02*
D03*
X460000D02*
D03*
X450000D02*
D03*
X440000D02*
D03*
X430000D02*
D03*
X420000D02*
D03*
X320000D02*
D03*
X310000D02*
D03*
X320000Y167500D02*
D03*
X330000D02*
D03*
Y157500D02*
D03*
X477500Y79500D02*
D03*
Y89500D02*
D03*
Y99500D02*
D03*
Y109500D02*
D03*
Y119500D02*
D03*
X445000Y231000D02*
D03*
X435000D02*
D03*
X425000D02*
D03*
X415000D02*
D03*
X405000D02*
D03*
X300000Y347500D02*
D03*
Y357500D02*
D03*
Y367500D02*
D03*
Y377500D02*
D03*
Y387500D02*
D03*
Y397500D02*
D03*
Y407500D02*
D03*
X432500Y191000D02*
D03*
X442500D02*
D03*
X452500D02*
D03*
X480000Y372500D02*
D03*
Y382500D02*
D03*
Y392500D02*
D03*
Y402500D02*
D03*
Y412500D02*
D03*
Y422500D02*
D03*
Y432500D02*
D03*
Y287500D02*
D03*
Y297500D02*
D03*
Y307500D02*
D03*
Y317500D02*
D03*
Y327500D02*
D03*
Y337500D02*
D03*
Y347500D02*
D03*
Y197500D02*
D03*
Y207500D02*
D03*
Y217500D02*
D03*
Y227500D02*
D03*
Y237500D02*
D03*
Y247500D02*
D03*
Y257500D02*
D03*
X300000Y227500D02*
D03*
Y217500D02*
D03*
Y207500D02*
D03*
Y197500D02*
D03*
Y187500D02*
D03*
Y257500D02*
D03*
Y267500D02*
D03*
Y277500D02*
D03*
Y287500D02*
D03*
Y297500D02*
D03*
Y307500D02*
D03*
Y317500D02*
D03*
X347000Y241000D02*
D03*
X357000D02*
D03*
X367000D02*
D03*
X337000Y231000D02*
D03*
X347000D02*
D03*
X357000D02*
D03*
X367000D02*
D03*
X329500Y364500D02*
D03*
Y354500D02*
D03*
X310500Y439500D02*
D03*
X367500Y440000D02*
D03*
X357500D02*
D03*
X411500Y440500D02*
D03*
X436500Y423000D02*
D03*
X446500D02*
D03*
X456500D02*
D03*
D13*
X310000Y167500D02*
D03*
X455000Y231000D02*
D03*
X422500Y191000D02*
D03*
X337000Y241000D02*
D03*
X300500Y439500D02*
D03*
X347500Y440000D02*
D03*
X401500Y440500D02*
D03*
X426500Y423000D02*
D03*
D14*
X477500Y69500D02*
D03*
X300000Y417500D02*
D03*
X480000Y442500D02*
D03*
Y357500D02*
D03*
Y267500D02*
D03*
X300000Y237500D02*
D03*
Y327500D02*
D03*
X329500Y344500D02*
D03*
D15*
X411500Y422500D02*
D03*
X371500D02*
D03*
M02*
